<svg id="Слой_1" data-name="Слой 1" xmlns="http://www.w3.org/2000/svg" viewBox="0 0 288.64 237.93"><defs><style>.cls-1{fill:#231f20;}</style></defs><title>book</title><path class="cls-1" d="M77.53,209.69a213.77,213.77,0,0,0-52.33-64.4,211.93,211.93,0,0,0-19-14,1.6,1.6,0,0,1-.57-2.17C22.24,104.61,40.18,81,56,55.94c4.1-6.48,8.05-13.07,11.65-19.85,1-1.8,3.69-.2,2.74,1.6C63.7,50.33,55.85,62.34,47.84,74.17c-8.59,12.69-17.5,25.15-26.35,37.66-4.43,6.26-8.85,12.53-13.16,18.87l-.57-2.17a216.32,216.32,0,0,1,60.09,58.95,215.2,215.2,0,0,1,12.42,20.6c1,1.81-1.79,3.41-2.74,1.61Z" transform="translate(-5.36 -18.11)"/><path class="cls-1" d="M115.17,230.49c-.25-6.21-1.65-15.29-7.59-18.74-3.5-2-8.65-1.56-12.4-.58-4.36,1.14-8.3,3.4-12.19,5.6-1.79,1-3.39-1.74-1.61-2.74,4.43-2.5,9-5.08,14-6.17,4.34-.94,9.84-1.16,13.81,1.15,7,4.07,8.87,14.08,9.17,21.48.08,2-3.09,2-3.18,0Z" transform="translate(-5.36 -18.11)"/><path class="cls-1" d="M293.82,138.87c-6.94,14.07-12.63,28.77-18.48,43.3-6.9,17.15-13.64,34.36-20.79,51.41-3.06,7.3-6.15,14.6-9.65,21.7a1.63,1.63,0,0,1-2.18.57c-28-14.67-59.87-20.6-91.15-22.79-8.83-.62-17.68-.92-26.54-1a1.59,1.59,0,0,1,0-3.18c32,.27,64.58,3.38,95,13.82a173.57,173.57,0,0,1,24.31,10.4l-2.17.57c6.93-14.07,12.63-28.77,18.48-43.3,6.9-17.15,13.63-34.36,20.78-51.41,3.06-7.29,6.16-14.6,9.66-21.7.9-1.83,3.64-.22,2.74,1.6Z" transform="translate(-5.36 -18.11)"/><path class="cls-1" d="M159.85,109.14a695.84,695.84,0,0,1-35.79,75.17q-5.48,10-11.33,19.75c-1,1.75-3.8.16-2.74-1.6a685.1,685.1,0,0,0,37.91-73.27q4.64-10.36,8.89-20.89c.75-1.87,3.82-1.06,3.06.84Z" transform="translate(-5.36 -18.11)"/><path class="cls-1" d="M121.76,229.54c.34-8.78-2.68-18.52-10.58-23.31-10-6.07-22-.75-30.61,5.33-1.67,1.18-3.25-1.57-1.6-2.75,8-5.62,18-10.23,28-7.75,7.47,1.87,13,7.67,15.77,14.67a33.73,33.73,0,0,1,2.22,13.81c-.08,2-3.25,2.05-3.17,0Z" transform="translate(-5.36 -18.11)"/><path class="cls-1" d="M284.26,119.46C271.18,150.35,260,182,247.78,213.23q-5,12.74-10.3,25.33a1.58,1.58,0,0,1-1.79.73c-27.75-9.2-56.8-13.73-85.91-15.73-8.26-.57-16.54-.93-24.83-1.15-2,0-2-3.23,0-3.17,29.33.78,58.76,3.4,87.37,10.15q12.26,2.88,24.21,6.84l-1.79.73c13.08-30.89,24.23-62.56,36.49-93.77,3.33-8.49,6.74-16.94,10.29-25.33.8-1.87,3.53-.26,2.74,1.6Z" transform="translate(-5.36 -18.11)"/><path class="cls-1" d="M276.17,111.94c-16.77,27.41-29,57.61-38.37,88.28Q233.9,213,230.75,226a1.61,1.61,0,0,1-1.95,1.11,336.9,336.9,0,0,0-83.74-13.73q-12.1-.44-24.22,0c-2,.08-2-3.1,0-3.17a340.4,340.4,0,0,1,85,7.69q12,2.64,23.81,6.15l-1.95,1.1a436.9,436.9,0,0,1,32.88-91.45c4-8,8.22-15.76,12.86-23.34,1.07-1.74,3.81-.15,2.74,1.6Z" transform="translate(-5.36 -18.11)"/><path class="cls-1" d="M111.62,201.92c28.52-5.23,59.29-8.57,87.66-.82a81.85,81.85,0,0,1,22.28,9.59l-2.33.95A363.87,363.87,0,0,1,266.1,106.43a6.57,6.57,0,0,1,.78-1.19l.39-.59c.54,1.56.59,2.11.16,1.66-.06,0,.41.06-.13,0-.14,0-.71-.29-1.2-.46-1.7-.57-3.44-1-5.17-1.45-5-1.25-10-2.33-15.05-3.37s-9.95-2-14.94-2.9a80.63,80.63,0,0,0-12.08-1.25c-20.47-.87-41.33,1-58.43,13.4-1.66,1.2-3.24-1.55-1.6-2.74,15.47-11.18,34.31-14.23,53-14A111.67,111.67,0,0,1,229,94.56c4.73.79,9.44,1.71,14.14,2.66,5.41,1.09,10.82,2.22,16.2,3.51,2.09.49,4.18,1,6.24,1.62a13.39,13.39,0,0,1,3.59,1.34c2.34,1.57-.05,3.9-1.11,5.54q-4.06,6.27-7.86,12.7-7.68,13-14.26,26.65a361,361,0,0,0-23.65,63.9,1.62,1.62,0,0,1-2.34,1c-12.25-7.75-26.63-11.36-40.94-12.77-14.56-1.44-29.29-.79-43.8.88-7.62.87-15.2,2.05-22.75,3.44-2,.36-2.85-2.7-.84-3.06Z" transform="translate(-5.36 -18.11)"/><path class="cls-1" d="M93.35,31.92a83.92,83.92,0,0,0-8.52-2.35l1.79-.73a575.78,575.78,0,0,1-45.24,76.28q-7.25,10.32-15,20.3l-.57-2.17a147.44,147.44,0,0,1,52.55,60.87,145.55,145.55,0,0,1,7.94,21.28,1.59,1.59,0,0,1-3.06.84A144.3,144.3,0,0,0,42,139.8,141.45,141.45,0,0,0,24.26,126a1.59,1.59,0,0,1-.57-2.17A574.11,574.11,0,0,0,72.24,49.6q6.08-11.06,11.64-22.36a1.62,1.62,0,0,1,1.79-.73,83.21,83.21,0,0,1,8.52,2.35c1.93.65,1.1,3.71-.84,3.06Z" transform="translate(-5.36 -18.11)"/><path class="cls-1" d="M113.91,18.79A221.33,221.33,0,0,1,134.6,46.62c8,12.4,15.08,25.52,20,39.43a88.15,88.15,0,0,1,5.11,22.82c.15,2-3,2-3.18,0-1-13.91-6.44-27.35-12.65-39.69A245.6,245.6,0,0,0,122.05,34c-3.29-4.45-6.71-8.81-10.38-12.94-1.36-1.52.88-3.77,2.24-2.24Z" transform="translate(-5.36 -18.11)"/><path class="cls-1" d="M92.26,201.11a162.12,162.12,0,0,0-37.81-64.59,163.6,163.6,0,0,0-15.6-14.29,1.59,1.59,0,0,1,0-2.24c3.77-3.17,7.37-6.56,10.87-10A1.59,1.59,0,0,1,52,112.21c-3.5,3.46-7.11,6.85-10.87,10V120a164.7,164.7,0,0,1,46.6,60.1,165.06,165.06,0,0,1,7.62,20.17c.59,2-2.47,2.8-3.06.85Z" transform="translate(-5.36 -18.11)"/><path class="cls-1" d="M109.59,27.41a89.92,89.92,0,0,0-12.87-6.16l2-1.1A292.15,292.15,0,0,1,68.75,88.09q-5.46,9.06-11.58,17.69l-.25-1.92A191.87,191.87,0,0,1,85,136.94a182.26,182.26,0,0,1,19.63,39.39,178.16,178.16,0,0,1,6.66,24c.41,2-2.65,2.85-3.06.84a178.28,178.28,0,0,0-36.88-77.41,201.9,201.9,0,0,0-16.7-17.66,1.6,1.6,0,0,1-.25-1.92A289.4,289.4,0,0,0,89,39q3.65-9.74,6.59-19.72a1.61,1.61,0,0,1,2-1.11,95.5,95.5,0,0,1,13.63,6.48,1.59,1.59,0,0,1-1.61,2.74Z" transform="translate(-5.36 -18.11)"/><path class="cls-1" d="M290.31,138.22a48.76,48.76,0,0,0-12.83-3.82,1.61,1.61,0,0,1-1.11-2,1.63,1.63,0,0,1,1.95-1.11,51.76,51.76,0,0,1,13.59,4.15,1.6,1.6,0,0,1,.57,2.17,1.62,1.62,0,0,1-2.17.57Z" transform="translate(-5.36 -18.11)"/><path class="cls-1" d="M282.07,120.07c-.17-.11-.34-.2-.51-.29l-.22-.1c.19.09.12,0,0,0-.38-.13-.76-.26-1.16-.36s-.89-.2-1.35-.27l-.37-.06s-.33,0-.16,0-.21,0-.24,0l-.38,0a48.77,48.77,0,0,0-5.27-.2,1.59,1.59,0,1,1,0-3.17,49.31,49.31,0,0,1,5.57.22,13.76,13.76,0,0,1,5.73,1.59,1.59,1.59,0,1,1-1.6,2.74Z" transform="translate(-5.36 -18.11)"/><path class="cls-1" d="M275.65,111.79a27,27,0,0,1-8.33-1.63,1.59,1.59,0,1,1,.85-3.06,25.23,25.23,0,0,0,3.82,1.09l.94.17.51.08.16,0c.68.08,1.37.13,2,.16a1.59,1.59,0,1,1,0,3.17Z" transform="translate(-5.36 -18.11)"/><path class="cls-1" d="M82,33.73l-4-2.61L76,29.78l-1-.64a3.27,3.27,0,0,1-.5-.32c-.18-.22-.31,0,0-.16a.3.3,0,0,0,.32-.13c.11-.12.12-.12,0,0a2.84,2.84,0,0,1-.21.43c-.17.35-.32.7-.48,1.05l-1,2.22-2,4.44a1.6,1.6,0,0,1-2.17.57,1.63,1.63,0,0,1-.57-2.17c.78-1.71,1.55-3.43,2.33-5.14l1.11-2.46a3,3,0,0,1,1.92-1.84,3.39,3.39,0,0,1,2.68.71l2.37,1.55L83.6,31a1.63,1.63,0,0,1,.57,2.18,1.59,1.59,0,0,1-2.17.56Z" transform="translate(-5.36 -18.11)"/><path class="cls-1" d="M101.05,200.79C92,174.05,82,146.49,63.82,124.38a110.87,110.87,0,0,0-16.91-16.71,1.6,1.6,0,0,1,0-2.24A170.21,170.21,0,0,0,69.34,77.85,243.35,243.35,0,0,0,86,46.45c.84-1.86,3.58-.25,2.74,1.6a240.42,240.42,0,0,1-17,31.9,174.29,174.29,0,0,1-22.59,27.72v-2.24C72,123.53,85.53,150.1,95.81,176.78c3,7.65,5.65,15.4,8.3,23.17.66,1.94-2.41,2.77-3.06.84Z" transform="translate(-5.36 -18.11)"/><path class="cls-1" d="M114,21.41c-8.8,25.2-23.71,47.78-40.58,68.28-4.82,5.85-9.82,11.53-15,17.1-1.39,1.5-3.63-.75-2.25-2.25C74,85.29,90.43,64.4,102.28,40.93A169.12,169.12,0,0,0,111,20.56c.67-1.91,3.74-1.09,3.06.85Z" transform="translate(-5.36 -18.11)"/><path class="cls-1" d="M136.87,83.6a155.4,155.4,0,0,0-17.26-28c-.63-.79.49-1.92,1.12-1.12A156.25,156.25,0,0,1,138.24,82.8c.45.92-.92,1.72-1.37.8Z" transform="translate(-5.36 -18.11)"/><path class="cls-1" d="M147.43,111A138,138,0,0,0,140,90.39c-.41-.93,1-1.74,1.37-.8a140.16,140.16,0,0,1,7.55,21,.79.79,0,0,1-1.53.42Z" transform="translate(-5.36 -18.11)"/><path class="cls-1" d="M115.76,75.88q-2.45-3.6-5.08-7.07a.79.79,0,0,1,.28-1.08.82.82,0,0,1,1.09.28q2.63,3.46,5.08,7.07a.79.79,0,1,1-1.37.8Z" transform="translate(-5.36 -18.11)"/><path class="cls-1" d="M138.51,123.41c-4.54-13.12-9.82-26-16.79-38.06a.79.79,0,0,1,1.37-.8c7,12.15,12.37,25.19,16.95,38.44.33,1-1.2,1.38-1.53.42Z" transform="translate(-5.36 -18.11)"/><path class="cls-1" d="M113.31,98.42A127.4,127.4,0,0,0,103.52,84c-.63-.8.49-1.93,1.12-1.13a132,132,0,0,1,10,14.78.8.8,0,0,1-1.37.81Z" transform="translate(-5.36 -18.11)"/><path class="cls-1" d="M131.75,137.8a327.5,327.5,0,0,0-13.8-31c-.47-.9.9-1.71,1.37-.8a332.91,332.91,0,0,1,14,31.38c.38,1-1.16,1.36-1.53.42Z" transform="translate(-5.36 -18.11)"/><path class="cls-1" d="M118.72,137.17A221,221,0,0,0,99.23,104q-3.3-4.55-6.94-8.81c-.66-.77.46-1.9,1.12-1.12a181,181,0,0,1,21.66,32.5q2.59,4.88,5,9.85c.45.92-.92,1.72-1.37.8Z" transform="translate(-5.36 -18.11)"/><path class="cls-1" d="M125.45,151.78c-.75-1.71-1.5-3.42-2.27-5.12a.79.79,0,0,1,1.37-.8q1.15,2.55,2.27,5.11a.8.8,0,1,1-1.37.81Z" transform="translate(-5.36 -18.11)"/><path class="cls-1" d="M100.21,134.38c-3.54-6-7.21-12-11.24-17.73-.59-.84.78-1.63,1.37-.8,4,5.72,7.7,11.69,11.24,17.73a.79.79,0,0,1-1.37.8Z" transform="translate(-5.36 -18.11)"/><path class="cls-1" d="M117.94,169.7c-3.86-10.22-9-19.89-14.34-29.41a.79.79,0,0,1,1.37-.8c5.4,9.64,10.59,19.44,14.5,29.79.36,1-1.17,1.37-1.53.42Z" transform="translate(-5.36 -18.11)"/><path class="cls-1" d="M211.21,109.3a106.78,106.78,0,0,0-42.64,4.21c-1,.31-1.39-1.22-.42-1.53a108,108,0,0,1,43.06-4.27c1,.1,1,1.69,0,1.59Z" transform="translate(-5.36 -18.11)"/><path class="cls-1" d="M240.45,115.61a147.75,147.75,0,0,0-19.21-4.9c-1-.19-.57-1.72.43-1.53a147.75,147.75,0,0,1,19.21,4.9c1,.32.55,1.85-.43,1.53Z" transform="translate(-5.36 -18.11)"/><path class="cls-1" d="M230.8,127.54c-16.62-3.24-33.7-6.48-50.67-4.4a70.6,70.6,0,0,0-14,3.16c-1,.33-1.39-1.2-.42-1.53,16.43-5.54,34.06-4.21,50.89-1.44,4.89.8,9.76,1.73,14.62,2.68,1,.19.58,1.72-.42,1.53Z" transform="translate(-5.36 -18.11)"/><path class="cls-1" d="M192.81,137.09a189.18,189.18,0,0,0-32.54.93c-1,.11-1-1.48,0-1.59a190.19,190.19,0,0,1,32.54-.93c1,.06,1,1.65,0,1.59Z" transform="translate(-5.36 -18.11)"/><path class="cls-1" d="M224.31,141.55c-6.95-1.52-14-2.73-21-3.55-1-.11-1-1.7,0-1.58a216.85,216.85,0,0,1,21.46,3.6c1,.21.57,1.74-.43,1.53Z" transform="translate(-5.36 -18.11)"/><path class="cls-1" d="M158.15,152.24q-3.39.19-6.78.46a.79.79,0,0,1,0-1.58q3.39-.27,6.78-.47a.8.8,0,0,1,.79.79.81.81,0,0,1-.79.8Z" transform="translate(-5.36 -18.11)"/><path class="cls-1" d="M215.78,157.29a140.52,140.52,0,0,0-37.14-5.44c-3.54-.09-7.08-.08-10.62,0a.79.79,0,0,1,0-1.58c12.61-.27,25.31.35,37.7,2.87q5.29,1.06,10.48,2.63c1,.3.56,1.83-.42,1.53Z" transform="translate(-5.36 -18.11)"/><path class="cls-1" d="M189.86,167.18a213,213,0,0,0-42.32-.93c-1,.08-1-1.51,0-1.59a212.29,212.29,0,0,1,42.32.94c1,.12,1,1.71,0,1.58Z" transform="translate(-5.36 -18.11)"/><path class="cls-1" d="M210.52,170.81q-5.16-1.19-10.39-2.09c-1-.18-.57-1.71.43-1.53q5.22.92,10.39,2.09c1,.22.57,1.75-.43,1.53Z" transform="translate(-5.36 -18.11)"/><path class="cls-1" d="M159.65,181c-7.69-.14-15.38.05-23.07.28a.79.79,0,0,1,0-1.58c7.69-.24,15.38-.43,23.07-.29a.8.8,0,0,1,0,1.59Z" transform="translate(-5.36 -18.11)"/><path class="cls-1" d="M205.21,189c-11.31-4.63-23.41-6.76-35.55-7.6-1-.07-1-1.65,0-1.58,12.28.84,24.54,3,36,7.65.93.38.52,1.91-.42,1.53Z" transform="translate(-5.36 -18.11)"/><path class="cls-1" d="M124.91,227.53a8.13,8.13,0,0,1,.14,4.4,5.44,5.44,0,0,1-2.15,3,5,5,0,0,1-6.14-.52,5.63,5.63,0,0,1-1.58-3.93,1.61,1.61,0,0,1,1.59-1.59,1.63,1.63,0,0,1,1.59,1.59c0,.13,0,.26,0,.39s.1.33,0-.17c0,.06,0,.12,0,.18a3.9,3.9,0,0,0,.18.67l.06.15c-.17-.5-.14-.3-.08-.18l.13.23.16.26c.08.11.23.22-.13-.17l.11.14a4.73,4.73,0,0,0,.4.37c-.43-.39-.22-.16-.08-.07a1.35,1.35,0,0,0,.26.15c.15.08.48.17-.09,0l.21.07.26.08c.18,0,.58.05-.06,0l.49,0,.28,0c.12,0,.29-.07-.29,0l.18,0a3.92,3.92,0,0,0,.49-.13c.37-.14-.37.17-.08,0l.29-.15.2-.13c.33-.22-.3.26-.06,0a5.44,5.44,0,0,0,.42-.41c.22-.25-.27.38,0,0l.15-.24.14-.26a1,1,0,0,1,.07-.15c-.26.49-.11.27-.06.12a6.17,6.17,0,0,0,.19-.74c0-.14,0-.33,0,.18a2.3,2.3,0,0,1,0-.26c0-.13,0-.27,0-.4s0-.33,0-.5a1.64,1.64,0,0,0,0-.22c0-.27.07.41,0,.12s-.15-.76-.25-1.13a1.6,1.6,0,0,1,1.1-1.95,1.62,1.62,0,0,1,2,1.1Z" transform="translate(-5.36 -18.11)"/><path class="cls-1" d="M84.47,216.06c-1.89,1.05-4.22,1.77-6.28.79a3.69,3.69,0,0,1-1.64-4.62,7.93,7.93,0,0,1,2-3,1.59,1.59,0,1,1,2.25,2.24,7.74,7.74,0,0,0-.82.9l.25-.32a5.49,5.49,0,0,0-.73,1.21l.16-.38a3.8,3.8,0,0,0-.26.89l.06-.42a2.58,2.58,0,0,0,0,.68l-.06-.42a2.83,2.83,0,0,0,.13.5l-.16-.38a2,2,0,0,0,.25.43l-.24-.32a2.57,2.57,0,0,0,.33.33l-.32-.25a2.59,2.59,0,0,0,.46.26L79.5,214a3.29,3.29,0,0,0,.7.19l-.43-.06a4.13,4.13,0,0,0,1.11,0l-.43.06a7.29,7.29,0,0,0,1.77-.5l-.38.16a10.94,10.94,0,0,0,1-.51,1.59,1.59,0,1,1,1.6,2.74Z" transform="translate(-5.36 -18.11)"/></svg>