<svg id="Слой_1" data-name="Слой 1" xmlns="http://www.w3.org/2000/svg" viewBox="0 0 174.66 151.18"><defs><style>.cls-1{fill:#acd4f7;}.cls-2{fill:#fff;}</style></defs><title>levels</title><rect class="cls-1" x="1.23" y="110.21" width="28.12" height="39.75"/><path d="M12.34,174.18V134.44a1.23,1.23,0,0,1,1.23-1.23H41.69a1.23,1.23,0,0,1,1.23,1.23v39.74a1.23,1.23,0,0,1-1.23,1.23H13.57A1.23,1.23,0,0,1,12.34,174.18Zm28.12-38.52H14.79V173H40.46Z" transform="translate(-12.34 -24.23)"/><rect class="cls-2" x="51.1" y="84.57" width="28.12" height="65.39"/><path d="M62.21,174.18V108.8a1.23,1.23,0,0,1,1.23-1.23H91.56a1.23,1.23,0,0,1,1.23,1.23v65.38a1.23,1.23,0,0,1-1.23,1.23H63.44A1.23,1.23,0,0,1,62.21,174.18ZM90.33,110H64.67V173H90.33Z" transform="translate(-12.34 -24.23)"/><rect class="cls-2" x="98.31" y="1.23" width="28.12" height="148.72"/><path d="M109.42,174.18V25.46a1.23,1.23,0,0,1,1.23-1.23h28.12A1.23,1.23,0,0,1,140,25.46V174.18a1.23,1.23,0,0,1-1.23,1.23H110.65A1.23,1.23,0,0,1,109.42,174.18Zm28.12-147.5H111.88V173h25.66Z" transform="translate(-12.34 -24.23)"/><path d="M157.76,171.7a1.23,1.23,0,0,0,1.23-1.22l.31-68.25a1.24,1.24,0,0,0-1.22-1.24h0a1.23,1.23,0,0,0-1.22,1.23l-.32,68.25a1.23,1.23,0,0,0,1.22,1.23Z" transform="translate(-12.34 -24.23)"/><path d="M185.46,171.7a1.23,1.23,0,0,0,1.23-1.22l.31-36a1.22,1.22,0,0,0-1.22-1.24h0a1.23,1.23,0,0,0-1.23,1.22l-.31,36a1.23,1.23,0,0,0,1.22,1.24Z" transform="translate(-12.34 -24.23)"/></svg>