<svg id="Слой_1" data-name="Слой 1" xmlns="http://www.w3.org/2000/svg" viewBox="0 0 169.8 194.34"><defs><style>.cls-1{fill:#fff;}.cls-2{fill:#acd4f7;}.cls-3{opacity:0.13;}</style></defs><title>start</title><path class="cls-1" d="M120.55,148.56a43.47,43.47,0,0,1,4.68-16.3,29,29,0,0,1,5.14-7.36c2.22-2.24,4.92-4,7.37-6.05A38.42,38.42,0,0,0,151.56,94c.86-7.39,2.09-15.56.15-22.79C150.28,65.94,141,51.1,135.52,46.53c-8.88-7.37-22.06-11.92-34-13.4A57.59,57.59,0,0,0,66.72,39.6,47.73,47.73,0,0,0,42.81,74.18c-1.89,13.93,2.9,28.36,12.3,39.56,3.89,4.64,8.52,8.75,12.4,13.4a57.59,57.59,0,0,1,11.34,21.59,91.27,91.27,0,0,0,15.07.77l12.77-.05A79,79,0,0,0,120.55,148.56Z" transform="translate(-14.77 -2.66)"/><path class="cls-2" d="M123,149.51a262.08,262.08,0,0,1-46,0c-.86,11.64-1.7,18.75,1.78,30,1.69,5.49,4.75,11.07,10.3,13.8,6.59,3.25,14.7,1.64,22-.14,2.8-.69,5.7-1.44,7.92-3.13,4.55-3.48,4.8-9.6,4.7-15C123.46,164.58,123.26,158.94,123,149.51Z" transform="translate(-14.77 -2.66)"/><g class="cls-3"><path d="M41.67,79.3a3,3,0,0,1,4.33.46c.64,1.37.42.71.71,2.68,0,.26.07.51.1.77.19.79.78,3.41,1,4-.37-.77-.36-.74,0,.1C50,92.39,50.43,93.87,53.09,98a32.88,32.88,0,0,0,4.42,6.66c2.93,3.62,11,10.39,15.63,16.27,1.36,1.67,4.36,5.46,4.78,6.11l0,0a41.45,41.45,0,0,1,4.81,6.23c2.58,4.54,2.35,4.47,4,7.75,1,2.2,2.48,5,2.35,7.26a2.61,2.61,0,0,1-.09.5,5.55,5.55,0,0,1,.7,4.75c-1.47,4.45-1.45,9.61-1.09,17.78.43,8.48-.14,5.23,2.32,12.89,1.4,3.67.42,1.46,2.44,5A6.5,6.5,0,0,1,94.62,192a4,4,0,0,1-2.77,4.58,11,11,0,0,1-1.35-.82c-1.9-1.35-3.77-2.73-5.72-4-1-.65-2-1.29-2.92-1.95a43.73,43.73,0,0,1-3.53-9.5c-1.32-7-1.66-8.27-3-15.92a39.37,39.37,0,0,1,0-10c.32-2.1.35-4.51,2-6.19h0l1.28.16,2.24.22c-3.28-9.76-5.89-15.17-11.74-22.35-3.84-4.19-8.11-8-12.17-12a55.23,55.23,0,0,1-9.91-12c-1.44-3.08-1.2-2.78-2.14-5-.15-.36.08.1.21.38-.54-1.09-1-2.21-1.51-3.33A22.13,22.13,0,0,1,42,88.78a.42.42,0,0,0,0-.09C41.25,85.09,39.81,81.27,41.67,79.3Z" transform="translate(-14.77 -2.66)"/></g><g class="cls-3"><path d="M87.06,141.68c-.11-.23-.22-.44-.32-.64l-.1-.24Z" transform="translate(-14.77 -2.66)"/></g><path d="M98.52,197c-5.28,0-12.09-1.1-16.39-5.95-3-3.37-3.95-7.81-4.64-11.72-2.11-12.07-2.78-16.9-1.65-29.89a1,1,0,0,1,1.08-.9c8.09.73,37.81.32,46.77-.66a1,1,0,0,1,.77.25,1,1,0,0,1,.33.74c0,5.31-.06,9.43-.08,13.54s-.06,8.22-.08,13.53c0,2.92,0,6.24-1.32,9.26-3.53,8.35-14.56,10.75-19.14,11.4A40.15,40.15,0,0,1,98.52,197ZM77.74,150.59c-1,12-.31,16.83,1.71,28.4.66,3.8,1.53,7.76,4.17,10.74,5.51,6.23,16,5.51,20.27,4.91s14.46-2.8,17.6-10.21c1.12-2.66,1.14-5.63,1.15-8.5,0-5.31,0-9.42.08-13.54,0-3.82,0-7.64.08-12.43C113,150.83,86.73,151.2,77.74,150.59Z" transform="translate(-14.77 -2.66)"/><path d="M79.93,150.27a1,1,0,0,1-1-.82C77,138.56,68.73,129.65,60.68,121c-7.85-8.41-16-17.11-18.57-27.87-1.39-5.77-1.25-19.8,3.49-31.61,3.55-8.84,8.66-15.5,15.18-19.8,12-7.89,32.63-13.52,48.94-9,15.41,4.23,28,12.23,35.55,22.5a46.61,46.61,0,0,1,8.5,33.39c-1.38,11.18-6.52,22.11-14.89,31.62-1.14,1.29-2.34,2.56-3.51,3.79a68,68,0,0,0-6.74,7.9,30.07,30.07,0,0,0-5.41,16.48,1,1,0,0,1-1,1h0a1,1,0,0,1-1-1A32.25,32.25,0,0,1,127,130.79a70.06,70.06,0,0,1,6.94-8.13c1.15-1.22,2.35-2.48,3.46-3.75,8.1-9.2,13.08-19.76,14.41-30.54a44.69,44.69,0,0,0-8.13-32c-7.25-9.91-19.5-17.64-34.48-21.76-15.74-4.33-35.72,1.14-47.31,8.78-6.19,4.07-11,10.42-14.44,18.88C42.87,73.7,42.71,87.17,44,92.69c2.47,10.26,10.41,18.76,18.09,27,8.24,8.83,16.77,18,18.78,29.42a1,1,0,0,1-.8,1.15Z" transform="translate(-14.77 -2.66)"/><path d="M92.48,149.66a1,1,0,0,1-1-1v-.19c-.11-10.88-.64-22.25-1.58-33.79-.41-5-.9-9.61-2.45-13.88a13.84,13.84,0,0,1-5.87-.56c-3.77-1.24-7-4.16-9.52-8.68-.83-1.48-1.35-3.82-.52-5.47a3,3,0,0,1,2.39-1.65,5.1,5.1,0,0,1,3.31,1A29.54,29.54,0,0,1,88.46,98c.09.2.18.4.26.6A15.85,15.85,0,0,0,97,93.7a18.44,18.44,0,0,0,1.56-2.1,50.68,50.68,0,0,1-4.49-13.23c-.67-3.54-1.23-8.74,1.63-13A3.17,3.17,0,0,1,97.49,64c1.17-.31,2.42.26,3.42,1.58,3.35,4.35,3.4,9.9,3.15,13.71a29.22,29.22,0,0,1-3.24,12.4c.62,1.17,1.28,2.31,2,3.44,2.52,4,5.18,6,8.13,6.28a10,10,0,0,0,4.06-.65,39.94,39.94,0,0,1,8.16-13.8,10.05,10.05,0,0,1,4.16-3c1.71-.56,4.15-.39,5.47,1.29,1.17,1.49,1,3.65-.44,5.91-3.25,5.1-9,8.14-14.26,10.44-.49.21-1,.43-1.53.64a81.35,81.35,0,0,0-2.76,10.51,156.53,156.53,0,0,0-3.1,35.33,1,1,0,0,1-1,1,1,1,0,0,1-1-1,158.77,158.77,0,0,1,3.13-35.78,90.65,90.65,0,0,1,2.36-9.34,10.65,10.65,0,0,1-3.43.32c-3.61-.29-6.77-2.64-9.64-7.19-.54-.85-1-1.71-1.53-2.57A16.89,16.89,0,0,1,98.49,95a18,18,0,0,1-9,5.46c1.54,4.39,2,9,2.45,14.08.94,11.58,1.47,23,1.58,33.93v.19a1,1,0,0,1-1,1Zm36.65-64a4.11,4.11,0,0,0-1.2.18,8.43,8.43,0,0,0-3.32,2.42,36.92,36.92,0,0,0-7.09,11.42c4.89-2.17,10.24-5,13.16-9.58.46-.72,1.43-2.51.55-3.63A2.7,2.7,0,0,0,129.13,85.68Zm-54.77.73h-.17a1,1,0,0,0-.86.58,4.37,4.37,0,0,0,.47,3.6c2.29,4.08,5.12,6.69,8.41,7.77a11.65,11.65,0,0,0,4.48.54l0-.08A27.38,27.38,0,0,0,76.2,87.14,3.83,3.83,0,0,0,74.36,86.41ZM98.12,65.87l-.13,0c-.24.06-.48.38-.64.62C95.48,69.27,95.06,72.92,96,78a48.47,48.47,0,0,0,3.7,11.45,29.22,29.22,0,0,0,2.36-10.32c.36-5.54-.51-9.47-2.74-12.38C99,66.33,98.52,65.87,98.12,65.87Z" transform="translate(-14.77 -2.66)"/><path d="M34.89,45.65a1.06,1.06,0,0,1-.45-.11c-15.15-7.63-15.16-7.71-15.26-8.65a1.1,1.1,0,0,1,.41-1A2,2,0,0,1,22,36L35.39,43.8a1,1,0,0,1-.5,1.85Z" transform="translate(-14.77 -2.66)"/><path d="M120.05,19.65a1,1,0,0,1-.4-.08,1,1,0,0,1-.51-1.31l6.53-15a1,1,0,1,1,1.82.8l-6.53,15A1,1,0,0,1,120.05,19.65Z" transform="translate(-14.77 -2.66)"/><path d="M164,53.14a1,1,0,0,1-1-.75,1,1,0,0,1,.69-1.19c15.68-4.57,16.05-4.21,16.67-3.6a1.11,1.11,0,0,1,.28,1.09c-.27,1-1.4,1.25-1.77,1.33l-14.7,3.1A.71.71,0,0,1,164,53.14Z" transform="translate(-14.77 -2.66)"/><path d="M183.58,111.45a1,1,0,0,1-.41-.09l-15.24-6.81a1,1,0,1,1,.81-1.81L184,109.55a1,1,0,0,1-.4,1.9Z" transform="translate(-14.77 -2.66)"/><path d="M75.16,19.36a1,1,0,0,1-.92-.64L68.86,4.5a1,1,0,0,1,.58-1.28,1,1,0,0,1,1.28.58L76.09,18a1,1,0,0,1-.58,1.27A.84.84,0,0,1,75.16,19.36Z" transform="translate(-14.77 -2.66)"/><path d="M15.76,100.46a1,1,0,0,1-.37-1.91l14.81-6A1,1,0,0,1,31,94.38l-14.82,6A1,1,0,0,1,15.76,100.46Z" transform="translate(-14.77 -2.66)"/></svg>