<svg id="Слой_1" data-name="Слой 1" xmlns="http://www.w3.org/2000/svg" viewBox="0 0 300 300"><defs><style>.cls-1,.cls-2{fill:#1c1919;}.cls-2{stroke:#1c1919;stroke-linecap:round;stroke-linejoin:round;}.cls-2,.cls-3{stroke-width:17.01px;}.cls-3{fill:none;stroke:#fff;stroke-miterlimit:10;}</style></defs><title>english</title><rect class="cls-1" y="0.04" width="300" height="220.6" rx="47.09"/><polygon class="cls-2" points="68.34 217.91 96.04 253.66 121.75 217.91 68.34 217.91"/><path class="cls-3" d="M173-24.72v83a27.25,27.25,0,0,0,27.24,27.24H300"/><path class="cls-3" d="M125.32-21.91V62.46c0,12.72-10.65,23-23.79,23H0"/><path class="cls-3" d="M173,222.43V159.92a28.3,28.3,0,0,1,28.3-28.3H300"/><path class="cls-3" d="M125.32,250.94V155.83a24,24,0,0,0-23.73-24.21H0"/><line class="cls-3" x1="182.62" y1="77.83" x2="272.69" y2="-12.24"/><line class="cls-3" x1="26.87" y1="233.58" x2="116.95" y2="143.5"/><line class="cls-3" x1="182.84" y1="143.5" x2="272.91" y2="233.58"/><line class="cls-3" x1="27.09" y1="-12.24" x2="117.16" y2="77.83"/></svg>