<?xml version="1.0" encoding="utf-8"?>
<!-- Generator: Adobe Illustrator 24.0.1, SVG Export Plug-In . SVG Version: 6.00 Build 0)  -->
<svg version="1.1" id="Слой_1" xmlns="http://www.w3.org/2000/svg" xmlns:xlink="http://www.w3.org/1999/xlink" x="0px" y="0px"
	 viewBox="0 0 283.8 283.8" style="enable-background:new 0 0 283.8 283.8;" xml:space="preserve">
<style type="text/css">
	.st0{fill:#2A4B5D;stroke:#F8DFD1;stroke-width:5.6693;stroke-linecap:round;stroke-linejoin:round;}
</style>
<title>lang</title>
<path class="st0" d="M273.9,141.9c0,67.2-50.4,123.6-117.2,131.2c-9.9,1.1-19.8,1.1-29.7,0C54.6,265,2.5,199.7,10.6,127.2
	C17.5,66,65.8,17.6,127.1,10.7c9.9-1.1,19.8-1.1,29.7,0C223.5,18.3,273.9,74.8,273.9,141.9z"/>
<path class="st0" d="M127.1,273.1c-60.2-77.1-60.2-185.3,0-262.4"/>
<path class="st0" d="M156.8,273.1c72.4-8.1,124.6-73.4,116.5-145.9C266.4,66,218,17.6,156.8,10.7"/>
<path class="st0" d="M156.8,10.7C186.1,48.1,202,94.3,202,141.9c0.1,47.6-15.8,93.8-45.2,131.2"/>
<line class="st0" x1="24.9" y1="200.9" x2="258.9" y2="200.9"/>
<line class="st0" x1="24.9" y1="80.9" x2="258.9" y2="80.9"/>
</svg>
