<?xml version="1.0" encoding="utf-8"?>
<!-- Generator: Adobe Illustrator 24.0.1, SVG Export Plug-In . SVG Version: 6.00 Build 0)  -->
<svg version="1.1" id="Слой_1" xmlns="http://www.w3.org/2000/svg" xmlns:xlink="http://www.w3.org/1999/xlink" x="0px" y="0px"
	 viewBox="0 0 283.8 283.8" style="enable-background:new 0 0 283.8 283.8;" xml:space="preserve">
<style type="text/css">
	.st0{fill:#2A4B5D;stroke:#F8DFD1;stroke-width:5.6693;stroke-linecap:round;stroke-linejoin:round;}
	.st1{fill:#A71E26;stroke:#F8DFD1;stroke-width:5.6693;stroke-linecap:round;stroke-linejoin:round;}
	.st2{display:none;fill:none;stroke:#505050;stroke-width:5.6693;stroke-linecap:round;stroke-linejoin:round;}
</style>
<title>start</title>
<circle class="st0" cx="141.9" cy="141.9" r="131.9"/>
<polygon class="st1" points="112.9,141.9 112.9,98.6 150.4,120.3 187.9,141.9 150.4,163.6 112.9,185.2 "/>
<path class="st2" d="M247.5,62.7"/>
<path class="st2" d="M222.2,37.1L222.2,37.1l-2.1-1.5l-0.5-0.4L218,34c-0.7-0.5-1.5-1.1-2.3-1.6l-2.1-1.4l-1.9-1.2l-0.3-0.2
	c-1.2-0.8-2.5-1.5-3.8-2.3l-0.9-0.5l-1.8-1c-0.9-0.5-1.9-1-2.8-1.5l-2.1-1.1l-0.7-0.4c-0.6-0.3-1.1-0.5-1.7-0.8
	c-0.8-0.4-1.6-0.7-2.4-1.1l-1.7-0.7c-1.9-0.8-3.8-1.6-5.7-2.3l-1.8-0.6c-1.9-0.7-3.9-1.3-5.8-1.9l-1.9-0.6l-0.8-0.2
	c-0.7-0.2-1.4-0.4-2.1-0.6l-1-0.3l-2.1-0.5c-0.9-0.2-1.8-0.4-2.6-0.6s-1.8-0.4-2.7-0.5s-1.6-0.3-2.5-0.5c-1.1-0.2-2.2-0.4-3.4-0.5
	c-0.7-0.1-1.5-0.2-2.2-0.3h-0.1l-2.6-0.3H156c-0.9-0.1-1.7-0.2-2.6-0.2c-1-0.1-1.9-0.1-2.9-0.2s-1.8-0.1-2.6-0.1c-0.2,0-0.5,0-0.7,0
	l-2.3-0.2c-0.9,0-1.9,0-2.8,0C69,9.9,9.9,69,9.9,141.9c0,0.9,0,1.9,0,2.8c0,0.6,0,1.3,0,1.9c0,0.1,0,0.3,0,0.4c0,0.4,0,0.7,0,1.1
	c0,0.7,0.1,1.4,0.1,2.1c0,0.1,0,0.1,0,0.2c0,0.9,0.1,1.7,0.2,2.6s0.1,1.8,0.3,2.7s0.2,1.8,0.3,2.7s0.2,1.7,0.4,2.6
	c0,0.1,0,0.1,0,0.2c0.4,2.6,0.9,5.3,1.4,7.9c0.2,0.9,0.4,1.7,0.6,2.6v0.1c0.2,0.8,0.4,1.6,0.6,2.4c0.1,0.3,0.1,0.6,0.2,0.8
	c0.2,0.6,0.3,1.3,0.5,1.9c0.2,0.9,0.5,1.7,0.7,2.6c0.2,0.6,0.4,1.2,0.5,1.8s0.3,1,0.5,1.5c0.9,2.8,1.9,5.5,3,8.3
	c0.3,0.8,0.6,1.6,1,2.3c0.1,0.4,0.3,0.7,0.5,1.1c0.3,0.6,0.6,1.3,0.9,1.9c0.1,0.3,0.2,0.5,0.4,0.8c0.3,0.7,0.6,1.3,0.9,2
	c0,0.1,0,0.1,0.1,0.2c0.3,0.6,0.6,1.3,0.9,1.9c0.5,0.9,0.9,1.9,1.4,2.8c0.4,0.7,0.8,1.4,1.1,2.1c2.9,5.3,6.2,10.4,9.9,15.2"/>
<path class="st2" d="M61.6,246.7L61.6,246.7l2.1,1.5l0.5,0.4c0.5,0.4,1.1,0.8,1.7,1.2c0.7,0.5,1.5,1,2.3,1.6l2.1,1.4
	c0.6,0.4,1.3,0.8,1.9,1.2l0.3,0.2c1.2,0.8,2.5,1.5,3.8,2.3l1,0.5l1.8,1c0.9,0.5,1.9,1,2.8,1.5l2.2,1.1l0.7,0.4l1.7,0.8
	c0.8,0.4,1.6,0.7,2.4,1.1c0.6,0.3,1.1,0.5,1.7,0.7c1.9,0.8,3.8,1.6,5.7,2.3c0.6,0.2,1.2,0.4,1.8,0.6c1.9,0.7,3.9,1.3,5.8,1.9
	l1.9,0.5l0.8,0.2c0.7,0.2,1.4,0.4,2.1,0.6l1,0.3c0.7,0.2,1.4,0.3,2.1,0.5c0.9,0.2,1.8,0.4,2.7,0.6c1.7,0.4,3.4,0.7,5.2,1
	c1.1,0.2,2.2,0.4,3.4,0.5c0.7,0.1,1.5,0.2,2.2,0.3h0.1l2.6,0.3h0.2c0.9,0.1,1.7,0.2,2.6,0.2c1,0.1,1.9,0.1,2.9,0.2s1.8,0.1,2.6,0.1
	h0.7l2.3,0.1h2.8c72.8,0,131.9-59,132-131.9c0-0.9,0-1.9,0-2.8c0-0.6,0-1.3,0-1.9c0-0.1,0-0.3,0-0.4c0-0.4,0-0.7,0-1.1
	c0-0.7-0.1-1.4-0.1-2.1c0-0.1,0-0.1,0-0.2c0-0.9-0.1-1.7-0.2-2.6s-0.2-1.8-0.3-2.7s-0.2-1.8-0.3-2.7s-0.2-1.7-0.4-2.6
	c0-0.1,0-0.1,0-0.2c-0.4-2.7-0.9-5.3-1.4-7.9c-0.2-0.9-0.4-1.7-0.6-2.6c-0.3-1.3,0-0.1,0-0.1c-0.2-0.8-0.4-1.6-0.6-2.3
	c-0.1-0.3-0.1-0.6-0.2-0.8c-0.2-0.6-0.3-1.3-0.5-1.9c-0.2-0.9-0.5-1.7-0.7-2.6c-0.2-0.6-0.4-1.2-0.5-1.8s-0.3-1-0.5-1.5
	c-0.9-2.8-1.9-5.5-3-8.3c-0.3-0.8-0.6-1.6-1-2.3c-0.1-0.4-0.3-0.7-0.5-1.1c-0.3-0.6-0.6-1.3-0.9-1.9c-0.1-0.3-0.2-0.5-0.4-0.8
	c-0.3-0.7-0.6-1.3-0.9-2l-0.1-0.2c-0.3-0.6-0.6-1.3-0.9-1.9c-0.5-0.9-1-1.9-1.4-2.8c-0.4-0.7-0.8-1.4-1.1-2.1
	c-2.9-5.3-6.2-10.4-9.9-15.2"/>
<path class="st2" d="M61.6,246.7c2.8,2.1,5.6,4.2,8.6,6.1l1.9,1.2c2.3,1.5,4.8,2.9,7.2,4.2c0.8,0.4,1.6,0.8,2.3,1.2
	c1.6,0.8,3.2,1.6,4.8,2.3c0.8,0.4,1.6,0.7,2.4,1.1c1.1,0.5,2.3,1,3.4,1.4c0.5,0.2,1,0.4,1.4,0.6c0.8,0.3,1.7,0.7,2.6,1l1.8,0.6l0,0
	c0.9,0.3,1.9,0.6,2.8,1h0.1c1,0.3,1.9,0.6,2.9,0.9c1.9,0.6,3.8,1.1,5.8,1.6l2.1,0.5c0.9,0.2,1.8,0.4,2.7,0.6c2,0.4,4,0.8,6,1.1
	l1.5,0.2l1.1,0.2c3.5,0.5,7,0.9,10.6,1.1c0.8,0.1,1.6,0.1,2.5,0.1c2,0.1,4,0.1,6,0.1c72.9,0,132-59.1,132-132c0-0.9,0-1.9,0-2.8
	c0-0.5,0-0.9,0-1.4c0-0.7,0-1.4-0.1-2c0-0.4,0-0.7,0-1s0-0.8-0.1-1.2c0-0.6,0-1.1-0.1-1.7c0-0.3,0-0.6-0.1-0.9
	c-0.1-0.9-0.1-1.8-0.3-2.7c0-0.4-0.1-0.9-0.1-1.4s-0.1-0.9-0.2-1.4s-0.1-0.9-0.2-1.3s-0.1-0.9-0.2-1.3c-0.1-0.7-0.2-1.4-0.3-2.1
	s-0.2-1.3-0.3-2v-0.2c-0.2-1.3-0.5-2.5-0.7-3.7c-0.2-0.9-0.4-1.7-0.6-2.6c-0.2-0.8-0.4-1.6-0.6-2.4l-0.2-0.8
	c-0.2-0.6-0.3-1.3-0.5-1.9c-0.2-0.8-0.5-1.7-0.7-2.6c-0.7-2.5-1.6-5-2.4-7.4c-0.2-0.6-0.5-1.2-0.7-1.8c-1.6-4.2-3.4-8.4-5.4-12.4
	c-0.5-0.9-1-1.9-1.4-2.8c-0.4-0.7-0.8-1.4-1.1-2.1l-1-1.7c-0.2-0.3-0.4-0.6-0.6-1c-1-1.7-2.1-3.5-3.2-5.2c-0.4-0.6-0.8-1.3-1.2-1.9
	c-0.6-1-1.3-1.9-2-2.9l-0.8-1.1l-1.1-1.5"/>
<path class="st2" d="M222.2,37.1L222.2,37.1l-2.1-1.5c-1.4-1.1-2.9-2.1-4.4-3.1l-2.1-1.4c-0.7-0.5-1.5-1-2.2-1.4s-1.2-0.8-1.9-1.1
	s-1.3-0.8-1.9-1.1l-0.9-0.5l-1.8-1c-0.9-0.5-1.9-1-2.8-1.5l-2.1-1.1c-0.8-0.4-1.6-0.8-2.4-1.2s-1.6-0.7-2.4-1.1
	c-0.6-0.3-1.1-0.5-1.7-0.7c-0.9-0.4-1.9-0.8-2.9-1.2c-1-0.4-1.9-0.8-2.9-1.1c-0.6-0.2-1.2-0.4-1.8-0.6c-4.7-1.7-9.5-3-14.4-4.2
	l-1.1-0.2l-0.9-0.2c-0.9-0.2-1.8-0.4-2.7-0.5s-1.6-0.3-2.5-0.5c-1.1-0.2-2.2-0.4-3.4-0.5c-0.7-0.1-1.5-0.2-2.2-0.3h-0.1l-2.2-0.3
	l-1-0.1l-2.2-0.2h-0.1c-0.9-0.1-1.9-0.1-2.8-0.2l-1.4-0.1l-1.3-0.1c-0.2,0-0.5,0-0.7,0l-2.3-0.2c-0.9,0-1.9,0-2.8,0
	C69,9.9,9.9,69,9.9,141.9c0,1.7,0,3.4,0.1,5.1c0,0.4,0,0.7,0,1.1c0,0.8,0.1,1.5,0.1,2.3s0.1,1.7,0.2,2.6s0.2,1.8,0.3,2.7
	s0.2,1.8,0.3,2.7c0.2,1.8,0.5,3.6,0.8,5.4c0.1,0.9,0.3,1.8,0.5,2.6c0.9,5,2.2,9.9,3.7,14.8c0.1,0.4,0.3,0.8,0.4,1.2
	c0.5,1.5,1,3,1.5,4.4c0.1,0.4,0.3,0.7,0.4,1.1c0.2,0.5,0.4,1,0.6,1.5s0.4,1,0.6,1.5c0.3,0.7,0.5,1.4,0.8,2.1
	c1.1,2.8,2.4,5.4,3.7,8.1c0.2,0.4,0.4,0.8,0.6,1.2c0.6,1.2,1.3,2.5,2,3.7c0.4,0.8,0.8,1.5,1.3,2.3c0.3,0.6,0.7,1.1,1,1.7
	c0.3,0.5,0.6,1,0.9,1.5c0.5,0.9,1.1,1.8,1.7,2.7c0.3,0.5,0.6,1,0.9,1.4c0.8,1.2,1.6,2.4,2.5,3.6c0.5,0.7,1,1.4,1.5,2.1"/>
</svg>
