<?xml version="1.0" encoding="utf-8"?>
<!-- Generator: Adobe Illustrator 24.0.1, SVG Export Plug-In . SVG Version: 6.00 Build 0)  -->
<svg version="1.1" id="Слой_1" xmlns="http://www.w3.org/2000/svg" xmlns:xlink="http://www.w3.org/1999/xlink" x="0px" y="0px"
	 viewBox="0 0 300 300" style="enable-background:new 0 0 300 300;" xml:space="preserve">
<style type="text/css">
	.st0{fill:#FFFFFF;}
	.st1{fill:#DFA6A8;}
	.st2{fill:#C67379;}
</style>
<title>error</title>
<rect class="st0" width="300" height="300"/>
<path class="st1" d="M175.8,33.9c-0.8-0.8-1.9-1.3-3-1.4c-6.5-0.5-13.1-0.6-19.7-0.1c-0.9-0.4-1.9-0.6-1.9-0.1v0.3
	c-0.9,0-1.8,0.2-2.7,0.3c-0.9,0-1.7,0.7-1.7,1.6c0,0.3,0.1,0.6,0.2,0.8c0.3,0.6,0.7,1.1,1.3,1.6c-1.2,0-3.1,0.2-3.1,1.4
	c-0.7,15.5-0.9,31.1-0.5,46.6s1.2,31.1,2.5,46.5c0.7,8.4,1.6,16.7,2.7,25l-3.2,39.2c-0.5,6.2-1,12.4-1.5,18.7
	c0.1,1.5,0.7,2.9,1.6,4.1c0.3,0.6,0.8,1.2,1.3,1.7c0.2,0.1,0.6,0.5,0.7,0c0.4-4.5,0.7-9.1,1.1-13.6c0.1,3,0.2,6,0.3,9.1
	c0,0.9,1.1,0.9,2,0.6c0.1,1.3,2.4,1,3.2,0.8c0.9-0.3,1.7-0.7,2.4-1.2c0.5,0.3,1,0.5,1.5,0.7c1.2,0.3,3.3,0.4,3.4-1.3l6.5-69.5
	l6.5-69.4c1.2-12.9,2.4-25.9,3.6-38.8C179.3,35.7,177.4,34.3,175.8,33.9z M163.7,60c0-1.9,0-3.9,0-5.8c0.2-1.2,0.5-2.5,0.7-3.7
	l0.3-1.2c0.3,9.4,0.2,18.8-0.4,28.2l-0.5,0.2C163.8,71.8,163.7,65.9,163.7,60z M156.4,51.3c-0.2,5.8-0.5,11.6-0.6,17.4
	c-0.1-1.7-0.2-3.4-0.3-5.1C155.6,59.4,155.9,55.3,156.4,51.3L156.4,51.3z M154.4,113c-0.2-9-0.1-18.1-0.1-27.1c0,0,0.1-0.1,0.1-0.2
	v-0.3c0.3,0.2,0.6,0.5,0.9,0.6c-0.3,10.3-0.4,20.5-0.6,30.8c0,0.5-0.1,0.9-0.2,1.4C154.5,116.4,154.5,114.7,154.4,113z M166.1,104.8
	l-3.6,37.9c-0.2-0.3-0.6-0.5-1-0.5l0.3-7.5c0.1-0.2,0.2-0.4,0.2-0.7c0.6-11.1,1-22.1,1.2-33.2c0.4-2.4,0.8-4.8,1.3-7.1
	c0.3,0,0.5,0,0.8-0.1c0.7-0.4,0.7-1.3,0.8-2c0.4-3.7,0.8-7.5,1-11.2c0.2-0.9,0.4-1.9,0.6-2.8c0.1-0.3,0-0.6-0.3-0.7c0,0,0,0,0,0
	c0.5-8.1,0.6-16.2,0.4-24.3c-0.1-4.1-0.3-8.1-0.6-12.2l5-0.7C170.2,61.3,168.1,83,166.1,104.8z"/>
<path class="st1" d="M160.3,237c0.3-2-2.4-1.9-3.7-1.8l-5.6,0.6c1.2-0.3,2.3-1.1,2.9-2.3c0.6-1.5-1-2.2-2.2-2.1l-5.5,0.7
	c-2.1,0.1-4.1,0.5-6.1,1.2c-1.3,0.5-2.5,1.5-3.1,2.8c-0.3,0.8-0.5,1.6-0.5,2.4c-0.1,1.8-0.2,3.7-0.2,5.5c0,3.7,0.2,7.4,0.5,11
	c0.2,1.8,0.4,3.7,0.7,5.5c0.1,1.4,0.5,2.7,1.2,3.9c1.2,1.6,3.1,2.4,5,2.2c0.7,0,1.5-0.1,2.2-0.2c0.2,0,0.3,0,0.5,0l0,0h0.2
	c0.2,0.1,0.3,0.2,0.1,0c1.5,0.8,3.2,0.6,4.5-0.4c0.8-0.5,1.4-1.2,1.7-2l0.6-0.3h0.2c1.4,0,2.8-0.5,3.8-1.5c2.8-3,3.6-7.3,3.6-11.3
	C161.2,246.4,159.7,241.7,160.3,237z M146.5,262.1H146h-0.3l0,0h-0.1c-0.1-0.1-0.2-0.1-0.2-0.2l-0.2-0.2l0,0l0,0
	c-0.3-0.5-0.5-1-0.6-1.5c-0.3-1.3-0.5-2.7-0.7-4.1c-0.9-6.3-1.1-12.8-0.7-19.1h0.8l1.1-0.2c-0.7,0.3-1.2,0.8-1.5,1.4
	c-0.3,1.2,1.1,1.6,1.9,1.8l1.7,0.4c-1.6,1.5-2.8,3.6-3.2,5.8c-0.3,1.4,1.3,1.8,2.5,1.9c0.8,4.6,1.3,9.2,1.5,13.9L146.5,262.1z
	 M153.4,246.9c-0.2-1.4-0.5-2.8-0.8-4.2c0-0.1-0.1-0.3-0.2-0.4l0.4-0.5l0.1-0.1l0.3-0.3c0.1,1.8,0.3,3.6,0.5,5.5H153.4z"/>
<path class="st2" d="M177.6,33.9C166.1,32,154.4,32,143,34.1c-1.4,0.2-3.7,1.2-3.6,2.7c0.5,23.7,0.8,47.5,1,71.2
	c0.2,23.7,0.2,47.5,0.1,71.3c-0.1,12.4-0.2,24.8-0.3,37.1c-0.6,0.1-0.7,0.8-0.6,1.2c0.1,0.4,0.3,0.8,0.6,1.1v0.5
	c0,0.7,1.1,1.3,1.7,1.5l0.3,0.1c0.3,0.3,0.7,0.5,1.1,0.8c0.9,0.6,1.9,1.1,2.9,1.2c3.8,0.3,8,0.7,11.6-0.6h0.1l4.2-0.3
	c0.8,0,0.8-0.8,0.7-1.3c-0.1-0.4-0.3-0.8-0.6-1.1c0.8-0.9,1.4-1.9,1.7-3.1c0-0.3,0-0.6-0.1-0.9c0.1-0.2,0.2-0.5,0.2-0.7
	c1.9-23.3,3.8-46.6,5.9-70c2.1-23.4,4.3-46.7,6.6-69.9c1.3-13.1,2.6-26.1,4-39.2C180.5,34.5,178.4,34,177.6,33.9z M162.9,106.7
	c-2.2,23.3-4.3,46.6-6.3,70c-1,12.1-2,24.2-3,36.2l-0.9,0.2l-2,0.4c0.3-22.2,0.4-44.4,0.3-66.6c0-23.7-0.2-47.5-0.5-71.2
	c-0.2-12.6-0.4-25.2-0.6-37.8c0.9-0.1,1.7-0.2,2.5-0.3c1.2-0.2,2.4-0.2,3.6-0.2l0,0h1h1.8c1.2,0,2.4,0,3.6,0.1l1.8,0.1h0.8
	c0.2,0,1.2,0.2,0.6,0c-0.6-0.2,0.2,0,0.4,0l1,0.1c0.6,0,1.2,0.1,1.8,0.2l0.8,0.1C167.3,60.9,165,83.8,162.9,106.7L162.9,106.7z"/>
<path class="st2" d="M161.5,230.8c-1.8-0.3-3.7,0.1-5.3,1.1c-0.4,0.2-0.7,0.4-1.1,0.6h-6.3c-0.8,0-1.6,0.1-2.4,0.2
	c-1.9,0.5-3.7,1.4-5.3,2.6c-2.1,1.4-4.5,3.1-5.1,5.7c-0.3,1.6-0.4,3.2-0.3,4.8c0,1.8,0,3.6,0.2,5.4c0.2,1.8,0.4,3.7,0.7,5.5
	c0.1,1.6,0.6,3.2,1.3,4.7c1,1.1,2.5,1.7,4,1.5c1.8,0,3.6-0.1,5.4-0.1c1.6,0,3.1,0,4.7-0.2c2.2-0.3,4.3-1.1,6.2-2.3
	c1.8-1,3.4-2.2,4.9-3.7c0.8-0.7,1.4-1.6,1.7-2.5c0.4-1.6,0.5-3.3,0.4-5c0-3.7,0.2-7.4,0.2-11C165.4,235.1,164.8,231.7,161.5,230.8z
	 M151.5,256.6c-1.2,0.1-2.4,0-3.6-0.2c-0.9-0.6-1.6-1.5-1.7-2.6c-0.4-1.4-0.6-2.8-0.9-4.2c-0.5-2.9-0.7-5.8-0.7-8.7
	c0-0.7,0-1.5,0-2.3h4.2c0.1,0.2,0.6,0.2,1.1,0h2c0.8-0.1,1.7-0.4,2.4-0.8l0.2-0.1c1.7,1.4,2,4.1,2.1,6.3c0,2.8-0.1,5.6-0.1,8.4
	c0,1.4,0,2.8-0.1,4.2h-0.8L151.5,256.6z"/>
</svg>
