<svg id="Слой_1" data-name="Слой 1" xmlns="http://www.w3.org/2000/svg" viewBox="0 0 300 300"><defs><style>.cls-1{fill:#fff;}.cls-2{fill:#dfa6a8;}.cls-3{fill:#c67379;}</style></defs><title>error</title><rect class="cls-1" width="300" height="300"/><path class="cls-2" d="M170.71,66.82a3.78,3.78,0,0,0-2.14-1,91.78,91.78,0,0,0-14.07-.09c-.63-.3-1.35-.44-1.35-.08v.19c-.64,0-1.27.11-1.91.18a1.2,1.2,0,0,0-1.11,1.75,3,3,0,0,0,.93,1.11c-.84,0-2.19.15-2.23,1q-.75,16.67-.39,33.34t1.81,33.28q.78,9,1.9,17.89l-2.31,28q-.56,6.67-1.1,13.36a5.45,5.45,0,0,0,1.16,2.91,5,5,0,0,0,.94,1.21c.11.09.46.34.49,0,.26-3.25.53-6.49.8-9.74q.09,3.24.25,6.48c0,.65.79.61,1.41.45.09.9,1.71.74,2.28.57a5.28,5.28,0,0,0,1.69-.88,3.62,3.62,0,0,0,1.06.5c.85.23,2.33.28,2.44-.93l4.65-49.69L170.56,97q1.31-13.89,2.6-27.78C173.27,68.09,171.91,67.11,170.71,66.82Zm-8.61,18.7c0-1.39,0-2.79,0-4.18.17-.89.33-1.78.5-2.67l.18-.87a195.91,195.91,0,0,1-.31,20.13l-.34.16Q162.14,91.81,162.1,85.52Zm-5.2-6.27q-.26,6.19-.45,12.41c-.08-1.22-.16-2.44-.23-3.66A77.55,77.55,0,0,1,156.9,79.25Zm-1.44,44.13c-.12-6.47-.07-12.94-.07-19.41a.17.17,0,0,0,.05-.12v-.23a2.91,2.91,0,0,0,.66.44q-.27,11-.4,22c0,.33-.1.66-.14,1C155.52,125.8,155.49,124.59,155.46,123.38Zm8.34-5.88-2.54,27.09a1.06,1.06,0,0,0-.68-.37l.21-5.38a1.08,1.08,0,0,0,.14-.48q.6-11.87.89-23.76c.29-1.7.59-3.41.9-5.11a1,1,0,0,0,.55-.08c.5-.26.53-.92.58-1.4.31-2.68.55-5.36.75-8,.14-.66.27-1.33.42-2a.37.37,0,0,0-.25-.48c.35-5.77.45-11.57.28-17.35q-.12-4.36-.45-8.72l3.56-.53Q166,94.2,163.8,117.5Z"/><path class="cls-2" d="M159.68,212.07c.18-1.41-1.75-1.37-2.67-1.28l-4,.41a3.12,3.12,0,0,0,2.06-1.62c.43-1.06-.69-1.59-1.59-1.47l-3.95.52a16,16,0,0,0-4.35.83,4.36,4.36,0,0,0-2.25,2,4.92,4.92,0,0,0-.35,1.75c-.08,1.31-.12,2.63-.13,3.94a74,74,0,0,0,.38,7.88c.14,1.31.31,2.62.51,3.91a6.8,6.8,0,0,0,.87,2.79,3.93,3.93,0,0,0,3.57,1.59c.53,0,1.06-.1,1.59-.15.12,0,.24,0,.35,0h0l.11,0c.11.06.23.14.09,0a3.05,3.05,0,0,0,3.25-.27,3.34,3.34,0,0,0,1.24-1.46l.46-.2h.14a4,4,0,0,0,2.72-1.08c2-2.17,2.6-5.21,2.55-8.1C160.27,218.75,159.26,215.43,159.68,212.07ZM149.82,230l-.36,0h-.19l0,0-.08,0a1.07,1.07,0,0,1-.16-.14l-.17-.17,0,0s0,0,0,0a4,4,0,0,1-.45-1.1,20.16,20.16,0,0,1-.48-2.9A67.88,67.88,0,0,1,147.4,212L148,212l.76-.11a2,2,0,0,0-1.1,1c-.25.86.77,1.17,1.39,1.31l1.22.27A7.56,7.56,0,0,0,148,218.6c-.18,1,.94,1.31,1.76,1.34a84.69,84.69,0,0,1,1.09,9.93Zm4.93-10.83c-.17-1-.36-2-.56-3a1.26,1.26,0,0,0-.12-.29l.28-.33.09-.09.22-.19c.06,1.3.23,2.6.38,3.9Z"/><path class="cls-3" d="M172,66.82a72,72,0,0,0-24.71.14c-1,.17-2.62.85-2.6,1.9q.53,25.46.74,50.93t.08,51q-.06,13.27-.21,26.56c-.46.08-.51.6-.42.89a2.8,2.8,0,0,0,.4.79v.36c0,.53.76.92,1.23,1.08l.21.05a8.39,8.39,0,0,0,.77.56,5.1,5.1,0,0,0,2.08.89c2.7.22,5.69.51,8.29-.44l.08,0,3-.22c.54,0,.56-.6.48-.9a2.27,2.27,0,0,0-.4-.81,4.72,4.72,0,0,0,1.2-2.2,1.08,1.08,0,0,0-.1-.62,1.2,1.2,0,0,0,.14-.5q2-25,4.24-50.07t4.69-50q1.38-14,2.83-28C174.08,67.29,172.61,66.93,172,66.82Zm-10.47,52.06q-2.35,25-4.49,50.06-1.11,13-2.14,25.91l-.65.12-1.4.29q.27-23.82.24-47.64,0-25.47-.37-50.94-.18-13.53-.46-27.05c.61-.07,1.21-.14,1.82-.19a21.4,21.4,0,0,1,2.6-.17h0l.72,0h1.3c.87,0,1.73,0,2.59.06l1.3.07.57,0c.12,0,.86.14.4,0s.16,0,.26,0l.71.08c.43,0,.86.1,1.28.15l.57.08Q163.82,94.33,161.51,118.88Z"/><path class="cls-3" d="M160.53,207.64a5.47,5.47,0,0,0-3.77.76c-.26.13-.51.28-.77.42l-4.47,0a8.91,8.91,0,0,0-1.71.15,10.84,10.84,0,0,0-3.82,1.85c-1.47,1-3.24,2.24-3.67,4.09a15.57,15.57,0,0,0-.22,3.41c0,1.29,0,2.58.15,3.86s.29,2.64.53,3.94a9.59,9.59,0,0,0,.91,3.34,3.18,3.18,0,0,0,2.85,1.06c1.3,0,2.59-.07,3.88-.1,1.12,0,2.25,0,3.36-.15a11.5,11.5,0,0,0,4.45-1.63,16.46,16.46,0,0,0,3.48-2.62,5,5,0,0,0,1.25-1.81,11.81,11.81,0,0,0,.28-3.56c0-2.63.16-5.27.12-7.9C163.33,210.67,162.86,208.25,160.53,207.64Zm-7.19,18.47a7.73,7.73,0,0,1-2.54-.16,2.58,2.58,0,0,1-1.23-1.83c-.26-1-.45-2-.62-3a43.28,43.28,0,0,1-.53-6.23c0-.53,0-1.07,0-1.61l3,0c.09.15.4.12.79,0l1.42,0a4.19,4.19,0,0,0,1.71-.58l.16-.09c1.24,1,1.46,2.93,1.48,4.51,0,2-.06,4-.1,6,0,1,0,2-.06,3h-.6Z"/></svg>