<?xml version="1.0" encoding="utf-8"?>
<!-- Generator: Adobe Illustrator 24.0.1, SVG Export Plug-In . SVG Version: 6.00 Build 0)  -->
<svg version="1.1" id="Слой_1" xmlns="http://www.w3.org/2000/svg" xmlns:xlink="http://www.w3.org/1999/xlink" x="0px" y="0px"
	 viewBox="0 0 300 300" style="enable-background:new 0 0 300 300;" xml:space="preserve">
<style type="text/css">
	.st0{fill:#FFFFFF;}
	.st1{fill:#B3B2E9;}
	.st2{fill:#7B79CD;}
</style>
<title>question</title>
<rect class="st0" width="300" height="300"/>
<path class="st1" d="M213.6,80.7c-4-21.7-18.1-40.2-38-49.9c-5.3-2.5-11-4.3-16.8-5.4c-8.8-2.2-18-2-26.7,0.5
	c-8.3,2.5-15.9,7.1-21.8,13.5c-11.1,12-16.7,27.6-19.9,43.1c-0.4,1.8-0.7,3.5-1,5.3c-0.6,2.4-0.3,5,0.9,7.2c0.5,0.7,1,1.4,1.6,2V98
	l0,0c2.4,1.1,5,1.9,7.7,2.2c0.5,0,1,0,1.5-0.1c0.1-0.2,0.2-0.3,0.2-0.5c0.8-0.2,1.6-0.5,2.3-0.9c2.2-1.1,3.9-3.1,4.6-5.5
	c1.6-9.7,4.4-19.2,8.3-28.2c1.1-2.3,2.3-4.5,3.7-6.6c0.8-1.2,1.6-2.5,2.5-3.7c0.1-0.2,0.5-0.7,0.8-1.1s0.5-0.5,0.7-0.8
	c0.9-1,1.9-2,3-3c0.6-0.5,1.2-1,1.8-1.5l0.3-0.3c2.1-1.3,4.3-2.5,6.6-3.5c2.2-0.7,4.4-1.3,6.7-1.6c2.8-0.2,5.5-0.2,8.3,0.1
	c3.3,0.6,6.6,1.5,9.8,2.7c1.6,0.7,3.2,1.6,4.8,2.5c0.9,0.5,1.8,1.1,2.7,1.7l1.3,0.9l0.6,0.4c3,2.4,5.8,5,8.2,7.9l1,1.2
	c0.1,0.1,0.4,0.5,0.6,0.8l0.1,0.1c0.3,0.4,0.6,0.8,0.9,1.2c1.2,1.7,2.3,3.4,3.4,5.1c2.1,3.4,4,7,5.6,10.7c1.9,4.5,3.2,9.3,4,14.1
	c0.4,3.7,0.3,7.5-0.2,11.2c-1,5-2.5,9.8-4.6,14.4c-5.6,11.9-13.3,22.6-19.7,34.1c-6.9,12.3-13,25.3-16.3,39c-2,7.9-3,16.1-2.9,24.3
	c0.1,5.3,4.4,9.5,9.7,9.5c5.2-0.1,10.1-4,10-9.2c-0.1-4.4,0.2-8.7,0.8-13.1c0.5-2.7,1-5.3,1.7-7.9c1.6-5.1,3.4-10.1,5.4-15
	c2.1-5.1,4.4-10.1,6.9-15c2.4-4.9,5.4-9.6,8.3-14.3c5.4-8.3,10.2-17,14.5-26c2.2-4.8,3.8-9.7,5-14.8
	C214.9,100.2,215.3,90.3,213.6,80.7z"/>
<path class="st1" d="M173.1,261.6c-0.5-2.7-1.8-5.2-3.7-7.1c-2.2-2.3-5.2-3.7-8.4-3.9h-0.1h-0.4c-5.7,0-10.8,3.6-12.9,8.9
	c-2.2,5.2-0.3,11.2,4.4,14.2c2.1,1.4,4.6,2.2,7.1,2.4c2.5,0.2,5.1-0.2,7.4-1.3c2.3-1,4.2-2.7,5.5-4.9
	C173.2,267.3,173.6,264.4,173.1,261.6z M163.2,263.2L163,263c-0.1-0.1-0.2-0.2-0.3-0.3c-0.1-0.2-0.3-0.4-0.4-0.6
	c-0.1-0.2-0.1-0.4-0.2-0.7s0-0.5,0-0.7c0.2,0.2,0.4,0.4,0.6,0.6c0.2,0.2,0.4,0.7,0.6,1c0.1,0.4,0.2,0.8,0.3,1.2
	C163.4,263.4,163.3,263.3,163.2,263.2L163.2,263.2z"/>
<path class="st2" d="M116.6,41.3c-9.2,8-15.4,18.8-17.7,30.7c-0.1,1.3,0.9,2.5,2.2,2.6c1.3,0.1,2.5-0.9,2.6-2.2
	c2.1-10.7,7.8-20.3,16-27.4c1-0.9,1.1-2.4,0.2-3.5C119.1,40.6,117.6,40.5,116.6,41.3z"/>
<path class="st2" d="M100.5,82.8c0-0.3-0.1-0.6-0.2-0.9c-0.1-0.3-0.3-0.5-0.6-0.7c-0.2-0.2-0.5-0.4-0.8-0.5
	c-0.6-0.2-1.3-0.2-1.9,0.1l-0.5,0.3c-0.3,0.3-0.6,0.6-0.7,1L94.5,85c-0.1,0.3-0.2,0.6-0.1,1c0,0.3,0.1,0.6,0.2,0.9
	c0.1,0.3,0.3,0.5,0.6,0.7c0.2,0.2,0.5,0.4,0.8,0.5c0.6,0.2,1.3,0.2,1.9-0.1l0.5-0.3c0.3-0.3,0.6-0.6,0.7-1c0.4-0.9,0.8-1.9,1.3-2.8
	C100.5,83.5,100.6,83.2,100.5,82.8z"/>
</svg>
