<svg id="Слой_1" data-name="Слой 1" xmlns="http://www.w3.org/2000/svg" viewBox="0 0 300 300"><defs><style>.cls-1{fill:#fff;}.cls-2{fill:#b3b2e9;}.cls-3{fill:#7b79cd;}</style></defs><title>question</title><rect class="cls-1" width="300" height="300"/><path class="cls-2" d="M193.51,103.27a47,47,0,0,0-25.63-33.64A44.38,44.38,0,0,0,156.54,66a35.29,35.29,0,0,0-18,.31,33.21,33.21,0,0,0-14.73,9.1c-7.48,8.12-11.24,18.64-13.41,29.09-.25,1.19-.48,2.39-.69,3.59a6.67,6.67,0,0,0,.59,4.89,6.52,6.52,0,0,0,1.1,1.35v.59h0a17.3,17.3,0,0,0,5.19,1.5c.34,0,.69,0,1-.09a3.31,3.31,0,0,0,.15-.33,5.36,5.36,0,0,0,1.58-.62,6.15,6.15,0,0,0,3.11-3.74A82.6,82.6,0,0,1,128,92.58a48.51,48.51,0,0,1,2.47-4.46c.54-.84,1.11-1.67,1.72-2.47.08-.11.37-.47.57-.71s.31-.35.46-.52c.64-.69,1.31-1.34,2-2,.38-.34.78-.67,1.19-1l.23-.18a32.49,32.49,0,0,1,4.42-2.39,27.2,27.2,0,0,1,4.53-1.1,30.71,30.71,0,0,1,5.59.1,34.1,34.1,0,0,1,6.59,1.84A34.6,34.6,0,0,1,161,81.37c.61.36,1.2.74,1.79,1.13l.86.59.39.29a37.57,37.57,0,0,1,5.55,5.36l.68.79c.06.09.26.34.4.51l.08.1c.21.27.41.55.61.83.81,1.13,1.58,2.28,2.3,3.46a61,61,0,0,1,3.76,7.21,44.06,44.06,0,0,1,2.7,9.51,33,33,0,0,1-.12,7.57,45.87,45.87,0,0,1-3.11,9.72c-3.8,8-9,15.25-13.32,23-4.66,8.32-8.77,17.1-11,26.32a65.3,65.3,0,0,0-1.95,16.4,6.59,6.59,0,0,0,6.55,6.43c3.51-.09,6.81-2.68,6.74-6.23a56.65,56.65,0,0,1,.57-8.82q.47-2.7,1.16-5.36,1.6-5.13,3.61-10.13c1.39-3.45,3-6.8,4.65-10.1s3.66-6.5,5.62-9.68a158.5,158.5,0,0,0,9.81-17.52,50,50,0,0,0,3.36-10A44.68,44.68,0,0,0,193.51,103.27Z"/><path class="cls-2" d="M166.16,225.29a9.22,9.22,0,0,0-2.52-4.81,9,9,0,0,0-5.68-2.64h-.1l-.27,0a9.36,9.36,0,0,0-8.68,6,7.73,7.73,0,0,0,3,9.55,10,10,0,0,0,4.77,1.59,10.35,10.35,0,0,0,5-.86,7.76,7.76,0,0,0,3.68-3.29A8.47,8.47,0,0,0,166.16,225.29Zm-6.65,1.08-.17-.1a2.5,2.5,0,0,1-.23-.23c-.09-.14-.17-.28-.25-.42s-.08-.3-.11-.45,0-.33,0-.49c.14.13.28.25.4.38s.28.46.4.69a7.76,7.76,0,0,1,.22.79C159.67,226.49,159.6,226.42,159.51,226.37Z"/><path class="cls-3" d="M128.07,76.68a36.42,36.42,0,0,0-11.95,20.73,1.67,1.67,0,0,0,1.51,1.78,1.68,1.68,0,0,0,1.77-1.51A32.8,32.8,0,0,1,130.2,79.2,1.65,1.65,0,0,0,128.07,76.68Z"/><path class="cls-3" d="M117.23,104.69a1.2,1.2,0,0,0-.14-.62,1.28,1.28,0,0,0-.39-.5,1.24,1.24,0,0,0-.53-.34,1.67,1.67,0,0,0-1.28.06l-.35.23a1.68,1.68,0,0,0-.49.69l-.86,1.92a1.21,1.21,0,0,0-.08.65,1.26,1.26,0,0,0,.14.63,1.25,1.25,0,0,0,.39.49,1.19,1.19,0,0,0,.53.34,1.67,1.67,0,0,0,1.28-.06l.35-.23a1.78,1.78,0,0,0,.49-.69c.28-.64.57-1.28.86-1.91A1.36,1.36,0,0,0,117.23,104.69Z"/></svg>