<svg id="Слой_1" data-name="Слой 1" xmlns="http://www.w3.org/2000/svg" viewBox="0 0 300 300"><defs><style>.cls-1{fill:#fff;}.cls-2{fill:#d4d3f4;}</style></defs><title>question</title><rect class="cls-1" width="300" height="300"/><path class="cls-2" d="M163,191.55c.21-1,.19-2.08.37-3.11,1-6,2.1-12.07,3.08-18.12a11.17,11.17,0,0,1,7.43-9.23,26.32,26.32,0,0,0,10-7.38c14.94-16.92,20.93-36.71,18.7-59a48.87,48.87,0,0,0-3.62-13.52c-4.37-10.54-12.54-18.12-21.08-25.28a19.43,19.43,0,0,0-3.38-2c-4.94-2.72-10.55-2.74-15.88-3.86a29.13,29.13,0,0,0-12.05,0c-4.08.86-8.16,1.74-12.19,2.8a36.76,36.76,0,0,0-13,6.92c-9.17,7.13-14.2,17.09-17.68,27.62-3.55,10.76-5.78,22-3.22,33.48a12.9,12.9,0,0,1,.08,3.11c-.13,4.81,1.87,6.43,6.57,5.06q14.65-4.26,29.24-8.7c6.47-2,7.26-3.54,5.31-9.92-1.16-3.77-.27-7.25,1.44-10.54a5.9,5.9,0,0,1,5.81-3.27c8.28.38,17,8.9,17,17.16a28.58,28.58,0,0,1-3.3,14c-3.32,6-7.66,11.2-13.72,14.7-5.3,3.06-10.56,6.23-16,9-4.21,2.13-6.12,5.17-6.29,9.86-.36,10,1.27,19.75,3.87,29.35a61.68,61.68,0,0,0,2.6,6.6,23.26,23.26,0,0,1,4.06-1.14c3-.27,6,0,8.9-.57a23.07,23.07,0,0,1,11.17-.06C160.38,196.4,162.31,194.91,163,191.55ZM156.58,185c-.16.88-.4,1.74-.49,2.13L136,189.84a4.53,4.53,0,0,1-.66-1.27c-1.42-8.22-3-16.4-3-24.81,0-3.48,1-5.75,4.4-7.38a167.74,167.74,0,0,0,16-9c11.7-7.36,18.1-18.08,19.39-31.84A14.22,14.22,0,0,0,172,112a26.07,26.07,0,0,0-22.6-21.69A12.55,12.55,0,0,0,137,97.58a21.42,21.42,0,0,0-1.52,16.12l-27.83,8.47c-1.51-5.47-2.72-10.49-1.72-15.52a53.24,53.24,0,0,0,.45-7.4,40.52,40.52,0,0,1,4.24-14.89,78.63,78.63,0,0,1,6.21-10.85c5.52-8,12.86-13.58,22.59-15.61a95.36,95.36,0,0,1,10-2c7-.73,13.73,1.09,20.39,2.9a13,13,0,0,1,4.76,2.63,79,79,0,0,1,15.26,16.68c7,10.71,7,22.6,5.67,34.74-1.49,13.47-7.47,24.81-15.94,35.08a21.2,21.2,0,0,1-8.5,6.72c-6.7,2.63-10.4,7.55-11.59,14.55C158.53,174.48,157.54,179.73,156.58,185Z"/><path class="cls-2" d="M153.12,217.91a59.77,59.77,0,0,0-7.69-2.78c-2.61-.77-5.29-1.28-7.17-1.73-8.4.86-14.19,4-15.87,11.89-.48,2.29-.89,4.6-1.39,6.88-1.15,5.29.41,9.72,4,13.6,4,4.31,9.2,6.08,14.77,7.35,5,1.14,8.94-.61,12.44-3.87,4.46-4.15,6.71-9.34,7.8-15.35.93-5.08-.6-9.25-3.31-13.19A8.91,8.91,0,0,0,153.12,217.91ZM148,244.69c-1.59,1.42-3.33,2.51-5.5,2.33-5-.72-9.51-2-13-5.76a8.58,8.58,0,0,1-2.57-7.46c.43-2.83.86-5.67,1.55-8.44a10.09,10.09,0,0,1,8.86-7.12,7.75,7.75,0,0,1,2.9,1c3.21,1.39,6.39,2.86,9.62,4.23,2.2.94,4.42,4.39,4.26,7.33C153.75,236.13,152.1,241,148,244.69Z"/><path class="cls-2" d="M171,154.66a21.2,21.2,0,0,0,8.5-6.72c8.47-10.27,14.45-21.61,15.94-35.08,1.35-12.14,1.33-24-5.67-34.74a79,79,0,0,0-15.26-16.68,13,13,0,0,0-4.76-2.63c-6.66-1.81-13.39-3.63-20.39-2.9a95.36,95.36,0,0,0-10,2c-9.73,2-17.07,7.59-22.59,15.61a78.63,78.63,0,0,0-6.21,10.85,40.52,40.52,0,0,0-4.24,14.89,53.24,53.24,0,0,1-.45,7.4c-1,5,.21,10,1.72,15.52l27.83-8.47A21.42,21.42,0,0,1,137,97.58a12.55,12.55,0,0,1,12.38-7.23A26.07,26.07,0,0,1,172,112a14.22,14.22,0,0,1,.09,3.51c-1.29,13.76-7.69,24.48-19.39,31.84a167.74,167.74,0,0,1-16,9c-3.38,1.63-4.4,3.9-4.4,7.38,0,8.41,1.62,16.59,3,24.81a4.53,4.53,0,0,0,.66,1.27l20.14-2.72c.09-.39.33-1.25.49-2.13,1-5.26,1.95-10.51,2.84-15.78C160.61,162.21,164.31,157.29,171,154.66Z"/><path class="cls-2" d="M149.78,223.43c-3.23-1.37-6.41-2.84-9.62-4.23a7.75,7.75,0,0,0-2.9-1,10.09,10.09,0,0,0-8.86,7.12c-.69,2.77-1.12,5.61-1.55,8.44a8.58,8.58,0,0,0,2.57,7.46c3.53,3.72,8.09,5,13,5.76,2.17.18,3.91-.91,5.5-2.33,4.14-3.71,5.79-8.56,6.08-13.93C154.2,227.82,152,224.37,149.78,223.43Z"/></svg>